<svg class="diagram-root" style="background: #f5f6f6" xmlns="http://www.w3.org/2000/svg" xmlns:xlink="http://www.w3.org/1999/xlink"><style>.diagram-root { font-family: "Helvetica Neue", sans-serif; font-size: 12px; } .t { overflow: visible; } .t-bg { y: 40; fill: #fff;   } .th { fill: #005aa0;   } .tht { fill: #fff; font-size: 14px;  } .tf { fill: #323c46; overflow: visible; } .tf.pk { fill: #005aa0; font-weight: bold; } .tf.fk { font-weight: bold; } .ty { fill: #adb1b5; font-weight: normal; text-anchor: end; } .r { fill: transparent; stroke: #c3c3c3; stroke-width: 1; } .l { stroke: 1; } .i { fill: #c2c7ce; stroke: #c2c7ce; } .i.ix { fill: #afb3b6; stroke: #000; } .fa { fill: transparent; overflow: visible; } .fa .bg.hover { fill: #f7f7f7; } .c { cy: 12; r: 4; stroke: #d2d2dc; fill: #d2d2dc; } .hr { fill: transparent; stroke: #323c46; stroke-opacity: 0.035; stroke-width: 13; } .dc { stroke: #fa5a3c; fill: #fa5a3c; } .x { stroke: white; stroke-width: 1; } .hl .th { fill: #1b9bff; } .hl .tht {  } .fhl .bg { fill: #e7f4ff; } .fhls .bg {  } .r.hl { stroke: #1b9bff; } .dim { opacity: 0.25; }</style><g class="drawing-wrapper" transform="translate(-47, -181) scale(1,1)"><g class="rs"><path d="M 311 301 m -1, 0 a 1,1 0 1,0 2,0 a 1,1 0 1,0 -2,0 M 311 301 m -0.5, 0 a 0.5,0.5 0 1,0 1,0 a 0.5,0.5 0 1,0 -1,0  M311 301 L311 301 299 301 M 311 307 m -1, 0 a 1,1 0 1,0 2,0 a 1,1 0 1,0 -2,0 M 311 307 m -0.5, 0 a 0.5,0.5 0 1,0 1,0 a 0.5,0.5 0 1,0 -1,0  M311 307 L311 307 304 301 311 295 M 311 295 m -1, 0 a 1,1 0 1,0 2,0 a 1,1 0 1,0 -2,0 M 311 295 m -0.5, 0 a 0.5,0.5 0 1,0 1,0 a 0.5,0.5 0 1,0 -1,0  M299 301 Q 278.01 301, 257.02 284.5 T 215.04 268 M 203.04 268 m -1, 0 a 1,1 0 1,0 2,0 a 1,1 0 1,0 -2,0 M 203.04 268 m -0.5, 0 a 0.5,0.5 0 1,0 1,0 a 0.5,0.5 0 1,0 -1,0  M203.04 268 L203.04 268 215.04 268 M209.04 274 L209.04 274 209.04 262" id="h2543177687" class="r"></path><path d="M 311 326 m -1, 0 a 1,1 0 1,0 2,0 a 1,1 0 1,0 -2,0 M 311 326 m -0.5, 0 a 0.5,0.5 0 1,0 1,0 a 0.5,0.5 0 1,0 -1,0  M311 326 L311 326 299 326 M 311 332 m -1, 0 a 1,1 0 1,0 2,0 a 1,1 0 1,0 -2,0 M 311 332 m -0.5, 0 a 0.5,0.5 0 1,0 1,0 a 0.5,0.5 0 1,0 -1,0  M311 332 L311 332 304 326 311 320 M 311 320 m -1, 0 a 1,1 0 1,0 2,0 a 1,1 0 1,0 -2,0 M 311 320 m -0.5, 0 a 0.5,0.5 0 1,0 1,0 a 0.5,0.5 0 1,0 -1,0  M299 326 Q 279.68 326, 260.35 363 T 221.7 400 M 209.7 400 m -1, 0 a 1,1 0 1,0 2,0 a 1,1 0 1,0 -2,0 M 209.7 400 m -0.5, 0 a 0.5,0.5 0 1,0 1,0 a 0.5,0.5 0 1,0 -1,0  M209.7 400 L209.7 400 221.7 400 M215.7 406 L215.7 406 215.7 394" id="h1537058300" class="r"></path><path d="M 549 306 m -1, 0 a 1,1 0 1,0 2,0 a 1,1 0 1,0 -2,0 M 549 306 m -0.5, 0 a 0.5,0.5 0 1,0 1,0 a 0.5,0.5 0 1,0 -1,0  M549 306 L549 306 537 306 M 549 312 m -1, 0 a 1,1 0 1,0 2,0 a 1,1 0 1,0 -2,0 M 549 312 m -0.5, 0 a 0.5,0.5 0 1,0 1,0 a 0.5,0.5 0 1,0 -1,0  M549 312 L549 312 542 306 549 300 M 549 300 m -1, 0 a 1,1 0 1,0 2,0 a 1,1 0 1,0 -2,0 M 549 300 m -0.5, 0 a 0.5,0.5 0 1,0 1,0 a 0.5,0.5 0 1,0 -1,0  M537 306 Q 521.18 306, 505.36 303.5 T 473.72 301 M 461.72 301 m -1, 0 a 1,1 0 1,0 2,0 a 1,1 0 1,0 -2,0 M 461.72 301 m -0.5, 0 a 0.5,0.5 0 1,0 1,0 a 0.5,0.5 0 1,0 -1,0  M461.72 301 L461.72 301 473.72 301 M467.72 307 L467.72 307 467.72 295" id="h1139284389" class="r"></path><path d="M 698.39 331 m -1, 0 a 1,1 0 1,0 2,0 a 1,1 0 1,0 -2,0 M 698.39 331 m -0.5, 0 a 0.5,0.5 0 1,0 1,0 a 0.5,0.5 0 1,0 -1,0  M698.39 331 L698.39 331 710.39 331 M 698.39 337 m -1, 0 a 1,1 0 1,0 2,0 a 1,1 0 1,0 -2,0 M 698.39 337 m -0.5, 0 a 0.5,0.5 0 1,0 1,0 a 0.5,0.5 0 1,0 -1,0  M698.39 337 L698.39 337 705.39 331 698.39 325 M 698.39 325 m -1, 0 a 1,1 0 1,0 2,0 a 1,1 0 1,0 -2,0 M 698.39 325 m -0.5, 0 a 0.5,0.5 0 1,0 1,0 a 0.5,0.5 0 1,0 -1,0  M710.39 331 Q 731.8 331, 753.2 350.5 T 796 370 M 808 370 m -1, 0 a 1,1 0 1,0 2,0 a 1,1 0 1,0 -2,0 M 808 370 m -0.5, 0 a 0.5,0.5 0 1,0 1,0 a 0.5,0.5 0 1,0 -1,0  M808 370 L808 370 796 370 M802 376 L802 376 802 364" id="h1607168654" class="r"></path><path d="M 698.39 462 m -1, 0 a 1,1 0 1,0 2,0 a 1,1 0 1,0 -2,0 M 698.39 462 m -0.5, 0 a 0.5,0.5 0 1,0 1,0 a 0.5,0.5 0 1,0 -1,0  M698.39 462 L698.39 462 710.39 462 M 698.39 468 m -1, 0 a 1,1 0 1,0 2,0 a 1,1 0 1,0 -2,0 M 698.39 468 m -0.5, 0 a 0.5,0.5 0 1,0 1,0 a 0.5,0.5 0 1,0 -1,0  M698.39 468 L698.39 468 705.39 462 698.39 456 M 698.39 456 m -1, 0 a 1,1 0 1,0 2,0 a 1,1 0 1,0 -2,0 M 698.39 456 m -0.5, 0 a 0.5,0.5 0 1,0 1,0 a 0.5,0.5 0 1,0 -1,0  M710.39 462 Q 731.8 462, 753.2 416 T 796 370 M 808 370 m -1, 0 a 1,1 0 1,0 2,0 a 1,1 0 1,0 -2,0 M 808 370 m -0.5, 0 a 0.5,0.5 0 1,0 1,0 a 0.5,0.5 0 1,0 -1,0  M808 370 L808 370 796 370 M802 376 L802 376 802 364" id="h1397587031" class="r"></path><path d="M 549 487 m -1, 0 a 1,1 0 1,0 2,0 a 1,1 0 1,0 -2,0 M 549 487 m -0.5, 0 a 0.5,0.5 0 1,0 1,0 a 0.5,0.5 0 1,0 -1,0  M549 487 L549 487 537 487 M 549 493 m -1, 0 a 1,1 0 1,0 2,0 a 1,1 0 1,0 -2,0 M 549 493 m -0.5, 0 a 0.5,0.5 0 1,0 1,0 a 0.5,0.5 0 1,0 -1,0  M549 493 L549 493 542 487 549 481 M 549 481 m -1, 0 a 1,1 0 1,0 2,0 a 1,1 0 1,0 -2,0 M 549 481 m -0.5, 0 a 0.5,0.5 0 1,0 1,0 a 0.5,0.5 0 1,0 -1,0  M537 487 Q 521.18 487, 505.36 394 T 473.72 301 M 461.72 301 m -1, 0 a 1,1 0 1,0 2,0 a 1,1 0 1,0 -2,0 M 461.72 301 m -0.5, 0 a 0.5,0.5 0 1,0 1,0 a 0.5,0.5 0 1,0 -1,0  M461.72 301 L461.72 301 473.72 301 M467.72 307 L467.72 307 467.72 295" id="h2286254435" class="r"></path></g><g class="hrs"></g><g class="ts"><svg width="122.04" height="100" x="81" y="211" id="h2472833127" class="t"><rect height="40" width="122.04" class="th"></rect><text x="13" y="25" class="tht">salaries</text><rect height="60" width="122.04" class="t-bg"></rect><text x="13" y="61" class="tf pk">emp_no<tspan x="109.04" class="ty">int</tspan></text><path d="M7,14A2,2 0 0,1 5,12A2,2 0 0,1 7,10A2,2 0 0,1 9,12A2,2 0 0,1 7,14M12.65,10C11.83,7.67 9.61,6 7, 6A6, 6 0 0, 0 1, 12A6, 6 0 0, 0 7, 18C9.61, 18 11.83, 16.33 12.65, 14H17V18H21V14H23V10H12.65Z" class="i pk" transform="translate(76.366171875, 48) scale(0.65)"></path><text x="13" y="86" class="tf">salary<tspan x="109.04" class="ty">int</tspan></text></svg><svg width="140.7" height="100" x="69" y="343" id="h311790747" class="t"><rect height="40" width="140.7" class="th"></rect><text x="13" y="25" class="tht">titles</text><rect height="60" width="140.7" class="t-bg"></rect><text x="13" y="61" class="tf pk">title_id<tspan x="127.69999999999999" class="ty">varchar</tspan></text><path d="M7,14A2,2 0 0,1 5,12A2,2 0 0,1 7,10A2,2 0 0,1 9,12A2,2 0 0,1 7,14M12.65,10C11.83,7.67 9.61,6 7, 6A6, 6 0 0, 0 1, 12A6, 6 0 0, 0 7, 18C9.61, 18 11.83, 16.33 12.65, 14H17V18H21V14H23V10H12.65Z" class="i pk" transform="translate(67.68632812499999, 48) scale(0.65)"></path><text x="13" y="86" class="tf">title<tspan x="127.69999999999999" class="ty">varchar</tspan></text></svg><svg width="150.72" height="225" x="311" y="244" id="h1639608377" class="t"><rect height="40" width="150.72" class="th"></rect><text x="13" y="25" class="tht">employees</text><rect height="185" width="150.72" class="t-bg"></rect><text x="13" y="61" class="tf pk">emp_no<tspan x="137.72" class="ty">int</tspan></text><path d="M7,14A2,2 0 0,1 5,12A2,2 0 0,1 7,10A2,2 0 0,1 9,12A2,2 0 0,1 7,14M12.65,10C11.83,7.67 9.61,6 7, 6A6, 6 0 0, 0 1, 12A6, 6 0 0, 0 7, 18C9.61, 18 11.83, 16.33 12.65, 14H17V18H21V14H23V10H12.65Z" class="i pk" transform="translate(105.046171875, 48) scale(0.65)"></path><text x="13" y="86" class="tf fk">emp_title_id<tspan x="137.72" class="ty">varchar</tspan></text><text x="13" y="111" class="tf">birth_date<tspan x="137.72" class="ty">date</tspan></text><text x="13" y="136" class="tf">first_name<tspan x="137.72" class="ty">varchar</tspan></text><text x="13" y="161" class="tf">last_name<tspan x="137.72" class="ty">varchar</tspan></text><text x="13" y="186" class="tf">sex<tspan x="137.72" class="ty">varchar</tspan></text><text x="13" y="211" class="tf">hire_date<tspan x="137.72" class="ty">date</tspan></text></svg><svg width="149.39" height="100" x="549" y="249" id="h1090417462" class="t"><rect height="40" width="149.39" class="th"></rect><text x="13" y="25" class="tht">dept_emp</text><rect height="60" width="149.39" class="t-bg"></rect><text x="13" y="61" class="tf pk">emp_no<tspan x="136.39" class="ty">int</tspan></text><path d="M7,14A2,2 0 0,1 5,12A2,2 0 0,1 7,10A2,2 0 0,1 9,12A2,2 0 0,1 7,14M12.65,10C11.83,7.67 9.61,6 7, 6A6, 6 0 0, 0 1, 12A6, 6 0 0, 0 7, 18C9.61, 18 11.83, 16.33 12.65, 14H17V18H21V14H23V10H12.65Z" class="i pk" transform="translate(103.71617187499999, 48) scale(0.65)"></path><text x="13" y="86" class="tf pk">dept_no<tspan x="136.39" class="ty">varchar</tspan></text><path d="M7,14A2,2 0 0,1 5,12A2,2 0 0,1 7,10A2,2 0 0,1 9,12A2,2 0 0,1 7,14M12.65,10C11.83,7.67 9.61,6 7, 6A6, 6 0 0, 0 1, 12A6, 6 0 0, 0 7, 18C9.61, 18 11.83, 16.33 12.65, 14H17V18H21V14H23V10H12.65Z" class="i pk" transform="translate(76.37632812499999, 73) scale(0.65)"></path></svg><svg width="149.39" height="100" x="549" y="405" id="h1676682957" class="t"><rect height="40" width="149.39" class="th"></rect><text x="13" y="25" class="tht">dept_manager</text><rect height="60" width="149.39" class="t-bg"></rect><text x="13" y="61" class="tf pk">dept_no<tspan x="136.39" class="ty">varchar</tspan></text><path d="M7,14A2,2 0 0,1 5,12A2,2 0 0,1 7,10A2,2 0 0,1 9,12A2,2 0 0,1 7,14M12.65,10C11.83,7.67 9.61,6 7, 6A6, 6 0 0, 0 1, 12A6, 6 0 0, 0 7, 18C9.61, 18 11.83, 16.33 12.65, 14H17V18H21V14H23V10H12.65Z" class="i pk" transform="translate(76.37632812499999, 48) scale(0.65)"></path><text x="13" y="86" class="tf pk">emp_no<tspan x="136.39" class="ty">int</tspan></text><path d="M7,14A2,2 0 0,1 5,12A2,2 0 0,1 7,10A2,2 0 0,1 9,12A2,2 0 0,1 7,14M12.65,10C11.83,7.67 9.61,6 7, 6A6, 6 0 0, 0 1, 12A6, 6 0 0, 0 7, 18C9.61, 18 11.83, 16.33 12.65, 14H17V18H21V14H23V10H12.65Z" class="i pk" transform="translate(103.71617187499999, 73) scale(0.65)"></path></svg><svg width="149.39" height="100" x="808" y="313" id="h475896179" class="t"><rect height="40" width="149.39" class="th"></rect><text x="13" y="25" class="tht">departments</text><rect height="60" width="149.39" class="t-bg"></rect><text x="13" y="61" class="tf pk">dept_no<tspan x="136.39" class="ty">varchar</tspan></text><path d="M7,14A2,2 0 0,1 5,12A2,2 0 0,1 7,10A2,2 0 0,1 9,12A2,2 0 0,1 7,14M12.65,10C11.83,7.67 9.61,6 7, 6A6, 6 0 0, 0 1, 12A6, 6 0 0, 0 7, 18C9.61, 18 11.83, 16.33 12.65, 14H17V18H21V14H23V10H12.65Z" class="i pk" transform="translate(76.37632812499999, 48) scale(0.65)"></path><text x="13" y="86" class="tf">dept_name<tspan x="136.39" class="ty">varchar</tspan></text></svg></g></g><text class="qdbd-link" x="10" y="20">www.quickdatabasediagrams.com</text></svg>